# xmcd CD database file
#
# Track frame offsets:
#	150
#	136695
#	249854
#
# Disc length: 4427 seconds
#
# Revision: 0
# Processed by: cddbd v1.5.1PL0 Copyright (c) Steve Scherf et al.
# Submitted via: CDex 1.51
#
DISCID=19114903
DTITLE=Various Artist - Bravo Hit Mix No. 5
DYEAR=1998
DGENRE=Mix
TTITLE0=Barvo Hit Mix Part 5
TTITLE1=Bravo Slow Hit Mix
TTITLE2=Bravo Italo Hit Mix
EXTD=YEAR: 1998
EXTT0=
EXTT1=
EXTT2=
PLAYORDER=
